/* XPM */
static char * config_xpm[] = {
"22 18 5 1",
" 	c None",
".	c #008080",
"+	c #000000",
"@	c #FFFFFF",
"#	c #00FFFF",
"                      ",
"         ..+++        ",
"        .@#...+       ",
"     ..+.#@.+++++     ",
"    .@#++@#+@#...+    ",
"    .#@#@#@##@...+    ",
"    +.#...+#@+.++     ",
"    ...@...+#+++++    ",
"   .#@.+@..+@#@...+   ",
"   .@#.+#..+#@#...+   ",
"    ++.#...+@+++++    ",
"     +@.+++##+.++     ",
"    .@#@#@##@#...+    ",
"    .#@++#@+#@...+    ",
"     ++++@#.+++++     ",
"        +#@...+       ",
"         +++++        ",
"                      "};
